#define check_width 16
#define check_height 8
static unsigned char check_bits[] = {
   0x00, 0x0f, 0x86, 0x03, 0xcf, 0x01, 0xec, 0x00, 0x78, 0x00, 0x38, 0x00,
   0x10, 0x00, 0x10, 0x00 };

